<?xml version="1.0" encoding="UTF-8" standalone="no"?>
<svg width="20px" height="20px" viewBox="0 0 46 46" version="1.1" xmlns="http://www.w3.org/2000/svg" xmlns:xlink="http://www.w3.org/1999/xlink">
    <g stroke="none" stroke-width="1" fill="none" fill-rule="evenodd">
        <path d="M9.82727273,24 C9.82727273,22.4090909 10.0909091,20.8181818 10.5454545,19.2727273 L2.62727273,13.5818182 C0.909090909,16.8181818 0,20.4545455 0,24 C0,27.5454545 0.909090909,31.1818182 2.62727273,34.4181818 L10.5454545,28.7272727 C10.0909091,27.1818182 9.82727273,25.5909091 9.82727273,24" fill="#FBBC05"></path>
        <path d="M23.7136364,10.1818182 C27.0519832,10.1818182 30.0668182,11.3054545 32.3954545,13.2045455 L39.1136364,6.4 C35.0372727,2.77272727 29.6461818,0.581818182 23.7136364,0.581818182 C14.4268636,0.581818182 6.44540909,5.98545455 2.62727273,13.5818182 L10.5454545,19.2727273 C12.3268636,14.0163636 17.5527273,10.1818182 23.7136364,10.1818182" fill="#EB4335"></path>
        <path d="M23.7136364,37.8181818 C17.5527273,37.8181818 12.3268636,33.9836364 10.5454545,28.7272727 L2.62727273,34.4181818 C6.44540909,42.0145455 14.4268636,47.4181818 23.7136364,47.4181818 C29.4455,47.4181818 35.1136364,45.1598182 39.3181818,40.8981818 L31.8181818,35.5090909 C29.6990909,37.0369091 26.9211818,37.8181818 23.7136364,37.8181818" fill="#34A853"></path>
        <path d="M46.1454545,24 C46.1454545,22.5818182 45.9318182,21.1181818 45.6090909,19.7454545 L23.7136364,19.7454545 L23.7136364,28.8363636 L36.3181818,28.8363636 C35.6879545,31.8372727 33.9372727,34.2181818 31.8181818,35.5090909 L39.3181818,40.8981818 C43.7454545,36.8363636 46.1454545,31.0909091 46.1454545,24" fill="#4285F4"></path>
    </g>
</svg>
